<svg width="24" height="25" viewBox="0 0 24 25" fill="none" xmlns="http://www.w3.org/2000/svg">
<path d="M2 20V17.5C2 16.9477 2.44772 16.5 3 16.5C3.55228 16.5 4 16.9477 4 17.5V20C4 20.5523 4.44772 21 5 21H19C19.5523 21 20 20.5523 20 20V17.5C20 16.9477 20.4477 16.5 21 16.5C21.5523 16.5 22 16.9477 22 17.5V20C22 21.6569 20.6569 23 19 23H5C3.34315 23 2 21.6569 2 20ZM11 4C11 3.44772 11.4477 3 12 3C12.5523 3 13 3.44772 13 4V15.0234L16.2461 11.6621C16.6297 11.265 17.2629 11.2542 17.6602 11.6377C18.0575 12.0213 18.0682 12.6544 17.6846 13.0518L12.7197 18.1943C12.5313 18.3895 12.2713 18.5 12 18.5C11.7287 18.5 11.4687 18.3895 11.2803 18.1943L6.31543 13.0518C5.93182 12.6544 5.94253 12.0213 6.33984 11.6377C6.73709 11.2542 7.37027 11.265 7.75391 11.6621L11 15.0234V4Z" fill="#F1820A"/>
</svg>
