<svg width="24" height="25" viewBox="0 0 24 25" fill="none" xmlns="http://www.w3.org/2000/svg">
<path fill-rule="evenodd" clip-rule="evenodd" d="M19.333 4.1542C19.1233 3.94574 18.8743 3.78039 18.6002 3.66757C18.3262 3.55475 18.0324 3.49669 17.7358 3.49669C17.4392 3.49669 17.1455 3.55475 16.8714 3.66757C16.5974 3.78039 16.3484 3.94574 16.1387 4.1542L5.15627 15.0692C4.45033 15.7709 4.05378 16.7226 4.05388 17.715C4.05397 18.7073 4.4507 19.6589 5.15678 20.3605C5.86285 21.0621 6.82045 21.4563 7.8189 21.4562C8.81736 21.4561 9.77488 21.0618 10.4808 20.36L18.2036 12.6846C18.3464 12.5525 18.5351 12.4805 18.7302 12.4839C18.9252 12.4873 19.1113 12.5659 19.2493 12.703C19.3872 12.8401 19.4663 13.025 19.4697 13.2189C19.4731 13.4127 19.4007 13.6004 19.2677 13.7422L11.5449 21.4176C11.0579 21.9143 10.4765 22.31 9.83436 22.5816C9.19225 22.8532 8.50226 22.9954 7.80443 22.9999C7.1066 23.0044 6.41481 22.8711 5.76923 22.6077C5.12364 22.3444 4.5371 21.9563 4.04365 21.4658C3.55019 20.9754 3.15965 20.3925 2.89468 19.7508C2.62972 19.1092 2.4956 18.4217 2.50011 17.7281C2.50462 17.0346 2.64768 16.3488 2.92098 15.7107C3.19427 15.0725 3.59237 14.4946 4.09217 14.0106L15.0736 3.09563C15.7796 2.39402 16.7372 1.99991 17.7357 2C18.7341 2.00009 19.6917 2.39438 20.3976 3.09613C21.1035 3.79787 21.5001 4.74959 21.5 5.74191C21.4999 6.73424 21.1032 7.68588 20.3971 8.38749L9.42174 19.2955L9.41371 19.3035L9.40668 19.3104L9.40467 19.3124L9.40166 19.3144C8.97236 19.7127 8.40389 19.9291 7.81677 19.9178C7.22964 19.9065 6.67002 19.6684 6.25655 19.2539C5.84308 18.8395 5.60826 18.2813 5.60189 17.6977C5.59551 17.1141 5.81807 16.551 6.22239 16.1277L14.0627 8.33561C14.2046 8.19924 14.3947 8.12372 14.5921 8.12534C14.7896 8.12695 14.9784 8.20555 15.1181 8.34423C15.2578 8.4829 15.337 8.67054 15.3388 8.86674C15.3406 9.06294 15.2648 9.25199 15.1278 9.39319L7.2875 17.1853C7.14533 17.3248 7.06471 17.5146 7.06339 17.7132C7.06208 17.9117 7.14016 18.1026 7.28047 18.2439C7.42078 18.3852 7.61183 18.4653 7.81157 18.4666C8.01132 18.4679 8.20341 18.3903 8.34558 18.2509L19.333 7.32792C19.5427 7.11947 19.7091 6.872 19.8226 6.59964C19.9361 6.32728 19.9946 6.03536 19.9946 5.74056C19.9946 5.44576 19.9361 5.15385 19.8226 4.88149C19.7091 4.60913 19.5427 4.36265 19.333 4.1542Z" fill="#F1820A"/>
</svg>
