<svg width="30" height="31" viewBox="0 0 30 31" fill="none" xmlns="http://www.w3.org/2000/svg">
<path fill-rule="evenodd" clip-rule="evenodd" d="M15.0544 28.2976H15.0491C12.8824 28.2968 10.7535 27.7558 8.86268 26.7294L2 28.521L3.83657 21.8448C2.70368 19.8909 2.10757 17.6746 2.10854 15.4039C2.11138 8.3003 7.91879 2.521 15.0543 2.521C18.5174 2.52248 21.7678 3.86421 24.2119 6.29949C26.6561 8.73465 28.0014 11.9716 28 15.414C27.9971 22.516 22.192 28.2947 15.0544 28.2976ZM9.57543 24.629L9.18252 24.3969L5.11011 25.4601L6.1971 21.5085L5.94126 21.1033C4.86418 19.3984 4.29531 17.4279 4.29615 15.4045C4.2985 9.50036 9.12542 4.69697 15.0605 4.69697C17.9345 4.69796 20.6361 5.81322 22.6676 7.83733C24.6991 9.86145 25.8172 12.5518 25.8161 15.4132C25.8137 21.3177 20.9868 26.1216 15.0563 26.1216H15.052C13.1212 26.1209 11.2275 25.6046 9.57543 24.629Z" fill="white"/>
<path d="M21.5805 18.4778C21.5154 18.3697 21.3631 18.2964 21.1375 18.1879C21.0827 18.1616 21.0237 18.1332 20.9606 18.1017C20.6371 17.9406 19.0468 17.1619 18.7502 17.0544C18.4538 16.947 18.2381 16.8933 18.0225 17.2155C17.8068 17.5377 17.1869 18.2629 16.9982 18.4778C16.8095 18.6925 16.6208 18.7195 16.2975 18.5583C16.2447 18.532 16.1726 18.5009 16.0837 18.4625C15.6283 18.2659 14.7299 17.8781 13.6962 16.9605C12.7346 16.1069 12.0854 15.0527 11.8967 14.7304C11.7081 14.4081 11.8766 14.234 12.0386 14.0735C12.1355 13.9774 12.2467 13.8425 12.358 13.7077C12.4139 13.64 12.4697 13.5723 12.5238 13.5094C12.6612 13.3497 12.7208 13.2287 12.8018 13.0642C12.8161 13.0351 12.831 13.0047 12.8472 12.9725C12.955 12.7575 12.9011 12.5696 12.8203 12.4085C12.7662 12.3006 12.4586 11.5555 12.1803 10.8811C12.0426 10.5476 11.9121 10.2314 11.823 10.0182C11.5911 9.46396 11.3561 9.46533 11.1676 9.46643C11.1426 9.46658 11.1184 9.46672 11.0952 9.46556C10.9067 9.45614 10.6908 9.45415 10.4752 9.45415C10.2596 9.45415 9.90912 9.53473 9.61263 9.85702C9.59362 9.87768 9.5724 9.90023 9.54931 9.92474C9.21242 10.2825 8.48052 11.0597 8.48052 12.5426C8.48052 14.1189 9.62753 15.6419 9.79871 15.8692L9.80132 15.8727C9.81191 15.8868 9.83089 15.9139 9.85802 15.9526C10.2453 16.5054 12.2946 19.4304 15.3271 20.7336C16.0988 21.0653 16.7013 21.2633 17.1711 21.4117C17.946 21.6568 18.6512 21.6222 19.2085 21.5393C19.83 21.4469 21.1222 20.7606 21.3919 20.0086C21.6613 19.2565 21.6613 18.612 21.5805 18.4778Z" fill="white"/>
</svg>
