<svg width="150" height="36" viewBox="0 0 150 36" fill="none" xmlns="http://www.w3.org/2000/svg">
<path fill-rule="evenodd" clip-rule="evenodd" d="M11.9056 1.14982C11.9056 1.53314 11.9056 1.30766 11.9056 1.73608C11.9056 2.8635 11.9056 4.87031 11.9056 6.31341C11.9056 6.67418 11.8605 7.37318 11.3419 7.08005C10.3272 6.51634 9.3125 6.26831 8.20763 6.4487C7.30569 6.58399 6.4714 7.1477 6.22336 8.16238C6.08807 8.72609 6.11062 9.3349 6.04298 9.96625H6.62924C8.18508 9.96625 9.74092 9.96625 11.2968 9.96625C11.9958 9.96625 11.9056 10.778 11.9056 10.778L11.883 14.3181C11.883 15.4681 11.1164 16.2573 9.98895 16.2573C8.86153 16.2573 7.71156 16.2573 6.58414 16.2573H6.06553V16.8886C6.06553 22.3002 6.06553 27.7119 6.06553 33.1235C6.06553 33.3715 6.06553 33.9127 6.06553 33.9127H0C0 33.9127 0 17.3396 0 9.49274C0 9.13196 0.0225481 8.79373 0.0225481 8.43296C0.180387 4.87031 2.34504 1.91647 5.63711 0.811594C7.68901 -0.0226973 10.3272 0.202786 11.4095 0.56356C11.7252 0.676303 11.9056 0.924337 11.9056 1.14982Z" fill="black"/>
<path fill-rule="evenodd" clip-rule="evenodd" d="M33.4844 12.8971C37.3402 16.7529 37.9941 22.4125 36.2128 26.8546C33.8903 32.6495 27.9601 35.8289 22.0298 34.3632C17.1368 33.1456 11.2742 27.6438 13.1909 18.6244C13.8899 15.7382 16.0771 11.9726 20.2034 10.2589C22.5259 9.31191 24.1719 9.28936 25.1415 9.31191C29.4708 9.35701 31.7031 11.1158 33.4844 12.8971ZM18.5799 21.9616C18.6025 25.6144 21.3308 28.4104 24.8709 28.4104C28.2983 28.3879 31.0267 25.5242 31.0267 21.9165C31.0267 18.3538 28.2757 15.5353 24.8258 15.5353C21.3083 15.5127 18.5574 18.3538 18.5799 21.9616Z" fill="black"/>
<path fill-rule="evenodd" clip-rule="evenodd" d="M60.3402 32.8977C60.6559 33.4163 60.3853 33.9124 59.9343 33.9124H54.8158C54.0943 33.9124 53.4629 33.9349 52.7639 32.9653C51.2532 30.8458 49.765 28.7488 48.2317 26.5841C46.7435 28.6586 45.2778 30.7105 43.8122 32.7399C43.5416 33.1232 43.271 33.4614 42.8652 33.6418C42.4142 33.8447 41.7603 33.9124 41.1966 33.9124H36.6418C36.1006 33.9124 35.8977 33.2585 36.1006 32.9653C38.9868 28.9292 41.5348 25.3665 44.421 21.3078C44.3083 21.15 44.2181 21.0147 44.1279 20.8794C41.7377 17.5197 39.3476 14.1825 36.98 10.8228C36.8673 10.6649 36.7545 10.3944 36.8222 10.214C36.9349 10.011 37.1604 10.0336 37.3408 10.0336C39.1221 10.011 40.926 10.0336 42.7073 10.0336C43.5416 10.0336 44.1955 10.3944 44.6916 11.0934C45.2327 11.8375 45.7514 12.6041 46.2925 13.3482C46.9239 14.2276 47.5327 15.107 48.1866 16.0089C49.5395 14.1149 50.8698 12.2659 52.1777 10.3944C52.358 10.1463 52.6512 10.0336 53.0345 10.0336C55.109 10.0336 56.9805 10.0336 59.0549 10.0561C59.2353 10.0561 59.4157 10.1012 59.5059 10.2365C59.6412 10.4846 59.551 10.6875 59.4383 10.8453C57.9501 12.9423 56.4619 15.0393 54.9737 17.1363C53.9815 18.5118 53.0119 19.9098 52.0198 21.2853C52.0875 21.398 52.1326 21.4656 52.1777 21.5558C54.2521 24.4871 56.3491 27.4184 58.4236 30.3272C59.1451 31.2968 60.0245 32.3791 60.3402 32.8977Z" fill="black"/>
<path fill-rule="evenodd" clip-rule="evenodd" d="M83.3169 33.9125C83.3169 33.9125 79.3484 33.9576 78.6043 33.9125C77.4769 33.8223 77.1838 32.6498 77.1838 31.4998C77.2289 27.1479 77.2063 22.7961 77.2063 18.4668C77.2063 17.1364 76.8455 16.5051 75.6054 15.9188C74.3652 15.3326 71.9751 14.8816 70.0585 15.6933C68.1419 16.5051 67.8938 16.956 67.8938 18.7825C67.8938 22.8412 67.8938 26.9225 67.8938 30.9812C67.8938 33.6193 67.1723 33.9125 65.9096 33.9125H61.7832V17.4747C61.8058 17.3394 61.8508 17.2041 61.8734 17.0462C62.0087 15.6933 62.4371 14.4532 63.2038 13.3483C64.6919 11.2288 66.5184 10.1464 69.1791 9.56016C72.5613 8.79352 75.9662 9.53762 77.0259 9.85329C80.4082 10.8905 83.4071 13.664 83.3169 18.4217C83.2268 23.3373 83.3169 33.9125 83.3169 33.9125Z" fill="black"/>
<path fill-rule="evenodd" clip-rule="evenodd" d="M124.624 9.8985V14.7239C124.422 15.7836 123.587 16.1895 122.279 16.1895C121.129 16.1444 119.98 16.167 118.784 16.167V16.7758C118.784 19.3012 118.784 21.8266 118.784 24.352C118.784 24.9608 118.784 25.5697 118.83 26.1785C118.897 26.9451 119.235 27.5765 119.957 27.8696C121.265 28.4108 122.595 28.4108 123.88 27.7794C124.174 27.6441 124.647 27.4637 124.624 28.0049V33.5518C124.624 33.5518 124.692 34.0253 124.016 34.3184C122.527 34.6116 121.017 34.6567 119.529 34.2959C116.191 33.5292 113.914 31.545 112.99 28.0725C112.832 27.4863 112.787 26.8775 112.674 26.2687V3.24671H113.982C114.433 3.33691 114.884 3.38201 115.312 3.5173C117.432 4.19375 118.762 6.11036 118.807 8.54559C118.807 8.99656 118.807 9.42498 118.807 9.8985C120.566 9.8985 124.624 9.8985 124.624 9.8985Z" fill="black"/>
<path fill-rule="evenodd" clip-rule="evenodd" d="M126.271 20.0681C126.925 14.9947 130.781 10.6654 135.629 9.56055C139.079 8.72626 142.326 9.69585 143.611 10.3497C146.497 11.635 148.707 14.5212 149.586 17.5427C149.88 18.5348 150.037 20.1132 149.992 21.3308C149.902 22.9994 149.564 24.2396 147.422 24.4425C146.813 24.4876 132.585 24.4651 132.585 24.4651C132.585 24.4651 132.698 24.9837 132.923 25.4572C134.547 28.9747 139.936 30.2375 142.957 26.3817C143.273 25.9984 143.656 26.0435 144.288 26.0435C144.919 26.0435 147.444 26.0435 148.076 26.0435C149 26.0435 150.781 25.8856 148.121 29.6061C147.399 30.6208 146.587 31.5453 145.437 32.4021C143.295 34.0031 140.026 35.1756 135.606 34.206C131.187 33.259 127.737 29.8767 126.474 24.8709C125.911 22.8641 126.181 20.6093 126.271 20.0681ZM132.675 19.1662H133.194C136.283 19.1662 139.395 19.1662 142.484 19.1662C142.867 19.1662 143.521 19.2564 143.746 18.8505C143.882 18.5799 143.859 17.926 143.002 16.8888C141.446 15.1526 139.237 14.5438 136.982 15.0398C134.93 15.4908 133.126 17.0692 132.675 19.1662Z" fill="black"/>
<path fill-rule="evenodd" clip-rule="evenodd" d="M28.4111 17.8807C25.0965 18.1738 22.1201 19.9326 19.5721 22.0296C17.9261 23.3825 14.138 28.0049 14.2281 28.5461C14.3183 29.0872 14.882 29.0196 14.837 29.5608C14.837 29.6059 14.837 29.6284 14.8144 29.6735C15.3781 30.5529 16.0546 31.3195 16.7987 31.996C17.182 32.3342 17.5879 32.6499 17.9937 32.943C18.1967 33.0783 18.4222 33.2136 18.6476 33.3489C18.8731 33.4842 18.9182 33.5744 19.0535 33.7999C19.2113 34.0253 19.6398 34.1832 19.8878 34.3185C20.0231 34.4087 20.2035 34.5214 20.3613 34.5665C20.4515 34.5891 20.4515 34.5891 20.5643 34.5665C20.8574 34.5214 21.128 34.3185 21.3985 34.2057C21.7593 34.0254 22.1201 33.845 22.4809 33.642C22.8867 33.4391 22.9769 33.4391 23.0671 33.4391C23.1573 33.4391 23.2024 33.4391 23.6083 33.146C23.9691 32.8754 25.57 31.4548 25.9308 31.1392C26.2916 30.8009 26.6298 30.4401 26.9229 30.0568C27.5092 29.3127 29.9895 26.6295 30.8689 24.3972C31.2973 23.3374 31.4326 22.0521 31.0718 20.5188C30.8914 19.7522 30.3277 18.3767 29.8091 18.0611C29.5385 17.8807 29.1327 17.8356 28.7719 17.8356C28.614 17.8581 28.5013 17.8581 28.4111 17.8807Z" fill="url(#paint0_linear_131_361)"/>
<path fill-rule="evenodd" clip-rule="evenodd" d="M18.3094 35.6267C19.6623 35.3786 22.2103 34.7698 24.6229 32.1542C25.4572 31.1846 26.2915 29.719 26.2915 29.719C26.2915 29.719 25.1415 30.4405 23.8563 31.2974C22.0073 32.515 20.6093 32.9209 20.6093 32.9209C20.6093 32.9209 21.3534 31.2523 21.872 30.2602C22.3005 29.471 23.3151 27.87 23.3151 27.87L20.4966 29.4484C20.6995 28.7494 21.872 26.7877 22.3681 26.0887C20.1583 26.6073 17.2947 27.5994 15.784 28.1181C15.784 28.1181 17.182 25.9083 17.5653 25.4122C15.9192 26.2691 15.333 26.7651 14.0703 28.0955C12.6497 29.6062 11.4096 31.3199 10.3047 33.1012C11.838 35.0179 15.2428 36.1678 18.3094 35.6267Z" fill="white"/>
<path fill-rule="evenodd" clip-rule="evenodd" d="M97.7026 8.65784H98.9428C99.0555 8.68039 99.1908 8.72549 99.3036 8.74804C102.37 8.95098 104.918 10.2588 107.128 12.446C111.029 16.3469 111.705 22.1193 109.901 26.6064C107.534 32.4915 101.513 35.716 95.5154 34.2278C90.5548 32.9876 87.1725 29.0416 86.1353 24.5545C85.6618 22.7732 85.8872 20.2703 85.9549 19.7066C86.6088 14.5655 90.5322 10.1686 95.4478 9.04117C96.1693 8.86078 96.936 8.77059 97.7026 8.65784ZM91.9979 21.6457C92.0204 25.3437 94.7939 28.2073 98.3791 28.1848C101.874 28.1622 104.625 25.2535 104.625 21.6006C104.625 17.9929 101.829 15.1292 98.334 15.1292C94.7713 15.0841 91.9753 17.9703 91.9979 21.6457Z" fill="black"/>
<path fill-rule="evenodd" clip-rule="evenodd" d="M75.4912 1.21816C75.3333 1.28581 75.0853 1.48875 75.1304 2.2103C75.1529 2.45833 75.2206 2.75146 75.401 3.06714C76.6862 5.61511 80.8351 9.2454 83.7213 12.3571C84.6684 13.3718 85.0517 15.2884 86.1566 16.1227C87.1487 16.8668 88.1183 17.3628 88.8849 18.4001C90.3055 20.3392 90.9143 22.8872 92.7407 24.5107C94.4093 25.9989 96.2583 28.141 98.5131 28.141C99.9562 28.141 102.143 27.4871 103.496 25.3675C104.24 24.1725 104.646 22.8421 104.646 21.6921C104.646 20.8804 104.646 18.355 102.121 16.3707C100.249 14.8825 98.017 15.0854 97.8592 14.86C97.5435 14.4315 97.273 12.7855 97.5886 10.7787C97.6112 10.6885 97.6337 10.6209 97.6563 10.5307C98.0396 9.15521 98.6259 7.8474 99.167 6.53959C99.4151 5.95333 99.6631 5.38962 99.9111 4.80336C99.9788 4.66807 100.046 4.46514 99.9562 4.32985C99.8209 4.14946 98.8062 4.57788 98.5357 4.75827C97.6563 5.25433 96.7994 5.84059 96.123 6.60724C95.3789 7.41898 94.8828 8.09543 94.5897 8.56895C94.2966 8.41111 94.0034 8.25327 93.6878 8.09543C94.2064 6.87782 95.7397 3.63085 95.4691 3.33772C95.3563 3.20243 94.9054 3.31517 94.4093 3.54065C93.5074 3.96907 92.7407 4.53278 91.929 5.25433C90.8015 6.24646 90.1927 7.17095 90.1927 7.17095C90.1927 7.17095 86.4723 6.47195 82.9772 5.05139C80.8126 4.17201 78.1293 2.63871 76.6411 1.73678C76.0549 1.376 75.8294 1.15052 75.6265 1.15052C75.5588 1.19562 75.5137 1.19561 75.4912 1.21816Z" fill="url(#paint1_linear_131_361)"/>
<path fill-rule="evenodd" clip-rule="evenodd" d="M95.515 27.509C94.4101 27.0129 93.1925 26.3815 91.0279 23.6532C89.7877 22.0748 88.4348 20.2709 86.6309 17.5651C85.3231 15.5808 83.9477 13.2583 82.3918 11.3868C81.4222 10.2143 79.7988 8.59082 78.6262 7.30556C76.191 4.5772 75.5371 3.33704 75.5371 3.33704C76.6645 4.7125 79.3929 6.58402 81.1066 7.93692C84.9398 11.0035 85.977 13.0103 87.1044 14.6113C90.5093 19.4141 91.4789 19.0984 95.4474 19.9552C94.9964 20.9248 93.3955 21.0376 93.3955 21.0376C93.3955 21.0376 95.966 21.6013 96.7101 22.413C96.3944 22.4356 94.0719 22.7512 94.0719 22.7512C94.0719 22.7512 97.2738 23.2924 98.2885 25.0061C97.9953 25.0286 95.6052 24.5777 95.6052 24.5777C95.6052 24.5777 98.6267 25.3218 98.9649 28.1403C98.7394 28.1629 97.4767 28.4109 95.515 27.509Z" fill="white"/>
<path fill-rule="evenodd" clip-rule="evenodd" d="M92.1555 7.55323C92.2006 7.48559 92.2231 7.39539 92.2682 7.32775C92.5839 6.62875 93.5535 5.02781 93.4858 4.77978C93.4407 4.62194 92.6741 5.23075 91.9976 5.8621C91.3888 6.42581 91.0957 6.96697 90.8477 7.2601C91.2535 7.32775 91.7045 7.41794 92.1555 7.55323Z" fill="white"/>
<path fill-rule="evenodd" clip-rule="evenodd" d="M89.1565 9.51551C90.0134 9.15474 91.2535 8.9969 92.2682 9.87629C92.4486 10.0341 92.629 10.3047 92.7868 10.6204C92.7868 10.6204 92.877 10.8008 92.8094 10.9361C92.7417 11.0488 92.5839 11.0263 92.5839 11.0263C92.5839 11.0263 91.3437 10.7782 90.329 10.5753C89.0663 10.3273 87.8262 10.2822 87.8262 10.2822C87.8262 10.2822 88.6154 9.741 89.1565 9.51551Z" fill="white"/>
<path fill-rule="evenodd" clip-rule="evenodd" d="M92.2916 9.98851C92.224 10.4169 91.7279 10.6875 91.2093 10.5973C90.6907 10.5071 90.3299 10.0562 90.4201 9.62773C90.4877 9.19931 90.9838 8.92873 91.5024 9.01892C91.9985 9.13167 92.3592 9.56009 92.2916 9.98851Z" fill="black"/>
<path fill-rule="evenodd" clip-rule="evenodd" d="M76.3716 1.64613C76.3716 1.64613 75.853 1.24026 75.6726 1.21771C75.5373 1.19516 75.4471 1.21771 75.3344 1.353C75.2442 1.46574 75.1991 1.55593 75.1765 1.66868C74.8834 2.7059 76.4843 2.90884 76.4167 1.80397C76.4167 1.73632 76.3941 1.69123 76.3716 1.64613Z" fill="black"/>
<path fill-rule="evenodd" clip-rule="evenodd" d="M96.2819 9.92082C96.4623 9.4924 96.6878 8.92869 96.9358 8.41007C97.8603 6.33562 98.4465 5.72681 98.2211 5.56897C98.0407 5.45623 96.8681 6.33562 96.0564 7.41794C95.6956 7.89146 95.2898 8.50027 95.1094 8.90614C95.5603 9.24436 95.9662 9.56004 96.2819 9.92082Z" fill="white"/>
<defs>
<linearGradient id="paint0_linear_131_361" x1="14.9885" y1="33.5688" x2="33.949" y2="16.4966" gradientUnits="userSpaceOnUse">
<stop stop-color="#F9AE00"/>
<stop offset="1" stop-color="#EB6212"/>
</linearGradient>
<linearGradient id="paint1_linear_131_361" x1="79.3833" y1="-3.11095" x2="109.323" y2="27.8927" gradientUnits="userSpaceOnUse">
<stop stop-color="#F9AE00"/>
<stop offset="1" stop-color="#EB6212"/>
</linearGradient>
</defs>
</svg>
