<svg width="36" height="50" viewBox="0 0 36 50" fill="none" xmlns="http://www.w3.org/2000/svg">
<path d="M18 0C8.06287 0 0 7.19978 0 16.0714C0 30.3571 18 50 18 50C18 50 36 30.3571 36 16.0714C36 7.19978 27.9371 0 18 0ZM18 25C16.576 25 15.1839 24.5811 13.9999 23.7962C12.8159 23.0113 11.893 21.8958 11.3481 20.5906C10.8031 19.2854 10.6605 17.8492 10.9383 16.4636C11.2162 15.0781 11.9019 13.8053 12.9088 12.8064C13.9158 11.8074 15.1987 11.1271 16.5954 10.8515C17.992 10.5759 19.4397 10.7174 20.7553 11.258C22.0709 11.7986 23.1954 12.7141 23.9866 13.8888C24.7777 15.0634 25.2 16.4444 25.2 17.8571C25.1979 19.7509 24.4387 21.5665 23.0889 22.9056C21.7391 24.2447 19.9089 24.9979 18 25Z" fill="#F1820A"/>
</svg>
