<svg width="55" height="23" viewBox="0 0 55 23" fill="none" xmlns="http://www.w3.org/2000/svg">
<path d="M6.26257 22.5214C6.80031 20.493 7.33634 18.4663 7.87919 16.4209C7.6402 16.5347 7.41657 16.6332 7.18953 16.7199C6.33598 17.0427 5.45512 17.2244 4.5384 17.2024C3.57389 17.1786 2.66913 16.9441 1.86509 16.3971C0.934723 15.7651 0.367966 14.8868 0.122144 13.7996C-0.0758791 12.9196 -0.022959 12.043 0.209206 11.1766C0.612081 9.6748 1.4349 8.42445 2.56671 7.37117C3.58072 6.42662 4.74838 5.74708 6.09016 5.37674C7.06662 5.10832 8.05503 5.03527 9.05197 5.24762C10.1035 5.47187 10.9878 5.97643 11.6519 6.83094C12.1657 7.49349 12.4389 8.25457 12.5259 9.0819C12.6079 9.85658 12.502 10.6109 12.2972 11.3567C12.0206 12.3675 11.7543 13.3817 11.4846 14.3942C10.9025 16.5891 10.3357 18.7891 9.7331 20.9789C9.49582 21.8402 8.88297 22.3447 7.99698 22.5061C7.98674 22.5078 7.97821 22.5146 7.96796 22.5197C7.40121 22.5214 6.83104 22.5214 6.26257 22.5214ZM3.19321 11.9478C3.19663 12.0056 3.19663 12.0973 3.20858 12.1874C3.31612 13.0827 3.78216 13.7027 4.64254 14.0102C5.12052 14.1801 5.61558 14.1903 6.10723 14.0867C7.29195 13.8353 8.19159 13.1744 8.83687 12.1653C9.21073 11.5792 9.41046 10.937 9.36949 10.2337C9.31486 9.31125 8.73104 8.57225 7.84505 8.31063C7.35853 8.16623 6.86689 8.16623 6.37695 8.28005C5.29806 8.53148 4.45646 9.13627 3.82996 10.0367C3.43733 10.599 3.20858 11.2224 3.19321 11.9478Z" fill="#F8F7F5"/>
<path d="M39.841 0.523183C39.5713 1.53909 39.3033 2.55499 39.0336 3.56919C39.0097 3.58788 38.9841 3.57938 38.9585 3.57938C38.4668 3.57938 37.9735 3.58278 37.4819 3.57938C37.1353 3.57769 36.8246 3.47406 36.5891 3.20904C36.3023 2.88796 36.2511 2.50572 36.3501 2.1031C36.4815 1.57476 36.6283 1.04812 36.7683 0.521484C37.7925 0.521484 38.8168 0.521484 39.841 0.523183Z" fill="#F8F7F5"/>
<path d="M55 5.17671C54.9334 5.35339 54.8959 5.53856 54.8481 5.72204C54.7235 6.18242 54.604 6.64451 54.4828 7.10659C54.4725 7.14567 54.4571 7.16775 54.4094 7.16605C53.7589 7.16435 53.1068 7.16435 52.4564 7.16435C52.4462 7.16435 52.436 7.16096 52.4189 7.15926C52.5981 6.48142 52.7774 5.80868 52.9566 5.12744C53.6377 5.12744 54.3189 5.12744 55 5.12744C55 5.14273 55 5.15972 55 5.17671Z" fill="#F8F7F5"/>
<path d="M17.6644 17.2063C17.0584 17.2029 16.239 17.0433 15.4827 16.6321C14.2775 15.9781 13.5708 14.9622 13.3164 13.6286C13.1594 12.8047 13.2208 11.9875 13.4376 11.1806C13.8303 9.71956 14.6206 8.4947 15.7081 7.45331C16.664 6.53933 17.7668 5.86489 19.0318 5.46057C19.7658 5.22613 20.5186 5.10381 21.2902 5.12929C22.2906 5.16157 23.2227 5.4198 24.0403 6.01439C24.9639 6.68713 25.5016 7.6045 25.7031 8.71894C25.8891 9.74504 25.7543 10.744 25.4026 11.7174C24.8922 13.1325 24.0233 14.2979 22.8761 15.2629C21.8997 16.0834 20.7986 16.6729 19.5575 16.9923C19.0096 17.135 18.4496 17.2046 17.6644 17.2063ZM16.4233 11.9467C16.4267 12.0045 16.4267 12.0962 16.4387 12.1863C16.5462 13.0816 17.0106 13.7033 17.8692 14.0091C18.3472 14.1807 18.8423 14.1909 19.3339 14.0873C20.522 13.8358 21.4234 13.1733 22.0687 12.1608C22.4408 11.5764 22.6388 10.9359 22.5979 10.236C22.5432 9.31354 21.9611 8.57454 21.0751 8.31122C20.5886 8.16682 20.097 8.16682 19.607 8.28064C18.5282 8.53207 17.6866 9.13686 17.0584 10.0355C16.6674 10.5979 16.4387 11.2213 16.4233 11.9467Z" fill="#F8F7F5"/>
<path d="M36.5344 17.2062C36.5259 17.1518 36.5651 17.1331 36.589 17.1094C38.0537 15.6687 39.5184 14.2281 40.9831 12.7892C41.514 12.2677 42.0432 11.7461 42.5741 11.2263C42.6168 11.1838 42.627 11.1532 42.598 11.0955C41.642 9.13671 40.6878 7.17625 39.7318 5.21579C39.7198 5.19031 39.7096 5.16483 39.6994 5.14274C39.713 5.12236 39.7284 5.12745 39.742 5.12745C40.2712 5.12745 40.8004 5.12236 41.3296 5.12915C41.823 5.13595 42.2839 5.26506 42.6919 5.55216C42.9855 5.75942 43.2126 6.02444 43.3645 6.34892C43.7503 7.17455 44.16 7.99 44.556 8.81054C44.6056 8.91247 44.6551 9.0127 44.7199 9.14521C44.9282 8.92776 45.1211 8.7205 45.3208 8.52173C46.0242 7.82521 46.736 7.13718 47.4342 6.43386C48.0197 5.84606 48.6941 5.41965 49.5049 5.21919C49.7456 5.15973 49.9897 5.12576 50.239 5.12576C50.7511 5.12406 51.2632 5.12576 51.7754 5.12576C51.7924 5.12576 51.8078 5.12576 51.8368 5.12576C51.6883 5.27525 51.55 5.41456 51.41 5.55216C49.5254 7.4039 47.6425 9.25563 45.7578 11.1074C45.7152 11.1498 45.7083 11.1821 45.7357 11.2382C46.6865 13.1867 47.6357 15.1387 48.5865 17.089C48.6036 17.123 48.6326 17.1552 48.6053 17.2028C48.5882 17.2045 48.5677 17.2062 48.5489 17.2062C48.0368 17.2062 47.5247 17.2147 47.0126 17.2045C46.3553 17.1909 45.7749 16.982 45.3157 16.4944C45.1569 16.3262 45.0392 16.1291 44.9401 15.9219C44.51 15.0283 44.0764 14.1381 43.6445 13.2462C43.641 13.2394 43.6342 13.2326 43.6291 13.2241C43.6001 13.2258 43.5881 13.2496 43.5711 13.2666C42.7073 14.116 41.8366 14.9586 40.9814 15.8165C40.5939 16.2056 40.179 16.5504 39.6857 16.7985C39.1394 17.072 38.5624 17.2181 37.9479 17.2096C37.4767 17.1994 37.0073 17.2062 36.5344 17.2062Z" fill="#F8F7F5"/>
<path d="M25.0883 17.2025C25.1515 16.9629 25.2112 16.7319 25.2727 16.4991C25.4383 15.874 25.6056 15.2488 25.7712 14.6236C25.9385 13.9933 26.104 13.3614 26.2713 12.7311C26.5564 11.6523 26.8432 10.5736 27.13 9.49482C27.2529 9.03104 27.3673 8.56386 27.5021 8.10347C27.7138 7.38317 28.1235 6.78008 28.6749 6.27382C29.2622 5.73359 29.9416 5.36325 30.732 5.20695C30.889 5.17637 31.0461 5.15599 31.2048 5.14919C32.2701 5.10502 33.3353 5.1407 34.4022 5.13051C34.4073 5.13051 34.4125 5.1322 34.4312 5.1373C34.1615 6.15151 33.8935 7.16571 33.6255 8.17822C33.5948 8.19521 33.5623 8.18672 33.5333 8.18672C33.0843 8.18672 32.6337 8.18672 32.1847 8.18672C31.3277 8.19011 30.7234 8.60803 30.3018 9.32324C30.1669 9.55088 30.1208 9.80911 30.0543 10.0605C29.7726 11.1172 29.4909 12.1739 29.2109 13.2306C28.9105 14.3671 28.6101 15.5036 28.3113 16.6401C28.2618 16.8287 28.2106 17.0156 28.1594 17.2042C27.1368 17.2025 26.1194 17.2025 25.0883 17.2025Z" fill="#F8F7F5"/>
<path d="M35.5495 5.12845C36.0992 5.12845 36.6403 5.11316 37.1815 5.13185C37.8899 5.15563 38.3611 5.73663 38.2587 6.43486C38.2092 6.77972 38.0965 7.11099 38.0077 7.44567C37.2669 10.2471 36.5226 13.0484 35.78 15.8498C35.6656 16.2779 35.5529 16.7077 35.4386 17.1358C35.4334 17.1579 35.4249 17.1783 35.4198 17.2004C34.3955 17.2004 33.3747 17.2004 32.3487 17.2004C33.4156 13.1759 34.4809 9.1547 35.5495 5.12845Z" fill="#F8F7F5"/>
</svg>
