<svg aria-hidden="true" xmlns="http://www.w3.org/2000/svg" xmlns:xlink="http://www.w3.org/1999/xlink"><symbol viewBox="0 0 22 22" fill="none" id="icon-arrow-rotate" xmlns="http://www.w3.org/2000/svg">
<path d="M22 21.2834H19.973V3.46014L1.43315 22L0 20.5669L18.5399 2.02699H0.716574V0H22V21.2834Z" fill="currentColor"/>
</symbol><symbol viewBox="0 0 42 42" fill="none" id="icon-close" xmlns="http://www.w3.org/2000/svg">
<path d="M42 2.115L23.115 21L42 39.885L39.885 42L21 23.115L2.115 42L0 39.885L18.885 21L0 2.115L2.115 0L21 18.885L39.885 0L42 2.115Z" fill="currentColor"/>
</symbol><symbol viewBox="0 0 24 25" fill="none" id="icon-download" xmlns="http://www.w3.org/2000/svg">
<path d="M2 20V17.5C2 16.9477 2.44772 16.5 3 16.5C3.55228 16.5 4 16.9477 4 17.5V20C4 20.5523 4.44772 21 5 21H19C19.5523 21 20 20.5523 20 20V17.5C20 16.9477 20.4477 16.5 21 16.5C21.5523 16.5 22 16.9477 22 17.5V20C22 21.6569 20.6569 23 19 23H5C3.34315 23 2 21.6569 2 20ZM11 4C11 3.44772 11.4477 3 12 3C12.5523 3 13 3.44772 13 4V15.0234L16.2461 11.6621C16.6297 11.265 17.2629 11.2542 17.6602 11.6377C18.0575 12.0213 18.0682 12.6544 17.6846 13.0518L12.7197 18.1943C12.5313 18.3895 12.2713 18.5 12 18.5C11.7287 18.5 11.4687 18.3895 11.2803 18.1943L6.31543 13.0518C5.93182 12.6544 5.94253 12.0213 6.33984 11.6377C6.73709 11.2542 7.37027 11.265 7.75391 11.6621L11 15.0234V4Z" fill="currentColor"/>
</symbol><symbol viewBox="0 0 24 25" fill="none" id="icon-paper" xmlns="http://www.w3.org/2000/svg">
<path fill-rule="evenodd" clip-rule="evenodd" d="M19.333 4.1542C19.1233 3.94574 18.8743 3.78039 18.6002 3.66757C18.3262 3.55475 18.0324 3.49669 17.7358 3.49669C17.4392 3.49669 17.1455 3.55475 16.8714 3.66757C16.5974 3.78039 16.3484 3.94574 16.1387 4.1542L5.15627 15.0692C4.45033 15.7709 4.05378 16.7226 4.05388 17.715C4.05397 18.7073 4.4507 19.6589 5.15678 20.3605C5.86285 21.0621 6.82045 21.4563 7.8189 21.4562C8.81736 21.4561 9.77488 21.0618 10.4808 20.36L18.2036 12.6846C18.3464 12.5525 18.5351 12.4805 18.7302 12.4839C18.9252 12.4873 19.1113 12.5659 19.2493 12.703C19.3872 12.8401 19.4663 13.025 19.4697 13.2189C19.4731 13.4127 19.4007 13.6004 19.2677 13.7422L11.5449 21.4176C11.0579 21.9143 10.4765 22.31 9.83436 22.5816C9.19225 22.8532 8.50226 22.9954 7.80443 22.9999C7.1066 23.0044 6.41481 22.8711 5.76923 22.6077C5.12364 22.3444 4.5371 21.9563 4.04365 21.4658C3.55019 20.9754 3.15965 20.3925 2.89468 19.7508C2.62972 19.1092 2.4956 18.4217 2.50011 17.7281C2.50462 17.0346 2.64768 16.3488 2.92098 15.7107C3.19427 15.0725 3.59237 14.4946 4.09217 14.0106L15.0736 3.09563C15.7796 2.39402 16.7372 1.99991 17.7357 2C18.7341 2.00009 19.6917 2.39438 20.3976 3.09613C21.1035 3.79787 21.5001 4.74959 21.5 5.74191C21.4999 6.73424 21.1032 7.68588 20.3971 8.38749L9.42174 19.2955L9.41371 19.3035L9.40668 19.3104L9.40467 19.3124L9.40166 19.3144C8.97236 19.7127 8.40389 19.9291 7.81677 19.9178C7.22964 19.9065 6.67002 19.6684 6.25655 19.2539C5.84308 18.8395 5.60826 18.2813 5.60189 17.6977C5.59551 17.1141 5.81807 16.551 6.22239 16.1277L14.0627 8.33561C14.2046 8.19924 14.3947 8.12372 14.5921 8.12534C14.7896 8.12695 14.9784 8.20555 15.1181 8.34423C15.2578 8.4829 15.337 8.67054 15.3388 8.86674C15.3406 9.06294 15.2648 9.25199 15.1278 9.39319L7.2875 17.1853C7.14533 17.3248 7.06471 17.5146 7.06339 17.7132C7.06208 17.9117 7.14016 18.1026 7.28047 18.2439C7.42078 18.3852 7.61183 18.4653 7.81157 18.4666C8.01132 18.4679 8.20341 18.3903 8.34558 18.2509L19.333 7.32792C19.5427 7.11947 19.7091 6.872 19.8226 6.59964C19.9361 6.32728 19.9946 6.03536 19.9946 5.74056C19.9946 5.44576 19.9361 5.15385 19.8226 4.88149C19.7091 4.60913 19.5427 4.36265 19.333 4.1542Z" fill="currentColor"/>
</symbol><symbol viewBox="0 0 80 80" fill="none" id="icon-play" xmlns="http://www.w3.org/2000/svg">
<path d="M80 40L20 74.641L20 5.35898L80 40Z" fill="currentColor"/>
</symbol><symbol viewBox="0 0 30 31" fill="none" id="icon-tg" xmlns="http://www.w3.org/2000/svg">
<path fill-rule="evenodd" clip-rule="evenodd" d="M11.5328 25.1885C12.159 25.1885 12.4452 24.9275 12.7911 24.612L15.9124 21.7688L22.3458 26.2213C23.5299 26.8334 24.3845 26.5165 24.6795 25.1915L28.9033 6.54558C29.3358 4.92141 28.2424 4.18476 27.1096 4.66653L2.30735 13.6256C0.614358 14.2617 0.624229 15.1465 1.99875 15.5407L8.36358 17.4017L23.0988 8.69314C23.7945 8.29798 24.4329 8.51043 23.9089 8.94609L11.9692 19.0396L11.9708 19.0407L11.5328 25.1885Z" fill="currentColor"/>
</symbol><symbol viewBox="0 0 30 31" fill="none" id="icon-wh" xmlns="http://www.w3.org/2000/svg">
<path fill-rule="evenodd" clip-rule="evenodd" d="M15.0544 28.2976H15.0491C12.8824 28.2968 10.7535 27.7558 8.86268 26.7294L2 28.521L3.83657 21.8448C2.70368 19.8909 2.10757 17.6746 2.10854 15.4039C2.11138 8.3003 7.91879 2.521 15.0543 2.521C18.5174 2.52248 21.7678 3.86421 24.2119 6.29949C26.6561 8.73465 28.0014 11.9716 28 15.414C27.9971 22.516 22.192 28.2947 15.0544 28.2976ZM9.57543 24.629L9.18252 24.3969L5.11011 25.4601L6.1971 21.5085L5.94126 21.1033C4.86418 19.3984 4.29531 17.4279 4.29615 15.4045C4.2985 9.50036 9.12542 4.69697 15.0605 4.69697C17.9345 4.69796 20.6361 5.81322 22.6676 7.83733C24.6991 9.86145 25.8172 12.5518 25.8161 15.4132C25.8137 21.3177 20.9868 26.1216 15.0563 26.1216H15.052C13.1212 26.1209 11.2275 25.6046 9.57543 24.629Z" fill="currentColor"/>
<path d="M21.5805 18.4778C21.5154 18.3697 21.3631 18.2964 21.1375 18.1879C21.0827 18.1616 21.0237 18.1332 20.9606 18.1017C20.6371 17.9406 19.0468 17.1619 18.7502 17.0544C18.4538 16.947 18.2381 16.8933 18.0225 17.2155C17.8068 17.5377 17.1869 18.2629 16.9982 18.4778C16.8095 18.6925 16.6208 18.7195 16.2975 18.5583C16.2447 18.532 16.1726 18.5009 16.0837 18.4625C15.6283 18.2659 14.7299 17.8781 13.6962 16.9605C12.7346 16.1069 12.0854 15.0527 11.8967 14.7304C11.7081 14.4081 11.8766 14.234 12.0386 14.0735C12.1355 13.9774 12.2467 13.8425 12.358 13.7077C12.4139 13.64 12.4697 13.5723 12.5238 13.5094C12.6612 13.3497 12.7208 13.2287 12.8018 13.0642C12.8161 13.0351 12.831 13.0047 12.8472 12.9725C12.955 12.7575 12.9011 12.5696 12.8203 12.4085C12.7662 12.3006 12.4586 11.5555 12.1803 10.8811C12.0426 10.5476 11.9121 10.2314 11.823 10.0182C11.5911 9.46396 11.3561 9.46533 11.1676 9.46643C11.1426 9.46658 11.1184 9.46672 11.0952 9.46556C10.9067 9.45614 10.6908 9.45415 10.4752 9.45415C10.2596 9.45415 9.90912 9.53473 9.61263 9.85702C9.59362 9.87768 9.5724 9.90023 9.54931 9.92474C9.21242 10.2825 8.48052 11.0597 8.48052 12.5426C8.48052 14.1189 9.62753 15.6419 9.79871 15.8692L9.80132 15.8727C9.81191 15.8868 9.83089 15.9139 9.85802 15.9526C10.2453 16.5054 12.2946 19.4304 15.3271 20.7336C16.0988 21.0653 16.7013 21.2633 17.1711 21.4117C17.946 21.6568 18.6512 21.6222 19.2085 21.5393C19.83 21.4469 21.1222 20.7606 21.3919 20.0086C21.6613 19.2565 21.6613 18.612 21.5805 18.4778Z" fill="currentColor"/>
</symbol></svg>