<svg aria-hidden="true" xmlns="http://www.w3.org/2000/svg" xmlns:xlink="http://www.w3.org/1999/xlink"><symbol viewBox="0 0 42 42" fill="none" id="icon-close" xmlns="http://www.w3.org/2000/svg">
<path d="M42 2.115L23.115 21L42 39.885L39.885 42L21 23.115L2.115 42L0 39.885L18.885 21L0 2.115L2.115 0L21 18.885L39.885 0L42 2.115Z" fill="currentColor"/>
</symbol><symbol viewBox="0 0 24 25" fill="none" id="icon-download" xmlns="http://www.w3.org/2000/svg">
<path d="M2 20V17.5C2 16.9477 2.44772 16.5 3 16.5C3.55228 16.5 4 16.9477 4 17.5V20C4 20.5523 4.44772 21 5 21H19C19.5523 21 20 20.5523 20 20V17.5C20 16.9477 20.4477 16.5 21 16.5C21.5523 16.5 22 16.9477 22 17.5V20C22 21.6569 20.6569 23 19 23H5C3.34315 23 2 21.6569 2 20ZM11 4C11 3.44772 11.4477 3 12 3C12.5523 3 13 3.44772 13 4V15.0234L16.2461 11.6621C16.6297 11.265 17.2629 11.2542 17.6602 11.6377C18.0575 12.0213 18.0682 12.6544 17.6846 13.0518L12.7197 18.1943C12.5313 18.3895 12.2713 18.5 12 18.5C11.7287 18.5 11.4687 18.3895 11.2803 18.1943L6.31543 13.0518C5.93182 12.6544 5.94253 12.0213 6.33984 11.6377C6.73709 11.2542 7.37027 11.265 7.75391 11.6621L11 15.0234V4Z" fill="currentColor"/>
</symbol><symbol viewBox="0 0 24 25" fill="none" id="icon-paper" xmlns="http://www.w3.org/2000/svg">
<path fill-rule="evenodd" clip-rule="evenodd" d="M19.333 4.1542C19.1233 3.94574 18.8743 3.78039 18.6002 3.66757C18.3262 3.55475 18.0324 3.49669 17.7358 3.49669C17.4392 3.49669 17.1455 3.55475 16.8714 3.66757C16.5974 3.78039 16.3484 3.94574 16.1387 4.1542L5.15627 15.0692C4.45033 15.7709 4.05378 16.7226 4.05388 17.715C4.05397 18.7073 4.4507 19.6589 5.15678 20.3605C5.86285 21.0621 6.82045 21.4563 7.8189 21.4562C8.81736 21.4561 9.77488 21.0618 10.4808 20.36L18.2036 12.6846C18.3464 12.5525 18.5351 12.4805 18.7302 12.4839C18.9252 12.4873 19.1113 12.5659 19.2493 12.703C19.3872 12.8401 19.4663 13.025 19.4697 13.2189C19.4731 13.4127 19.4007 13.6004 19.2677 13.7422L11.5449 21.4176C11.0579 21.9143 10.4765 22.31 9.83436 22.5816C9.19225 22.8532 8.50226 22.9954 7.80443 22.9999C7.1066 23.0044 6.41481 22.8711 5.76923 22.6077C5.12364 22.3444 4.5371 21.9563 4.04365 21.4658C3.55019 20.9754 3.15965 20.3925 2.89468 19.7508C2.62972 19.1092 2.4956 18.4217 2.50011 17.7281C2.50462 17.0346 2.64768 16.3488 2.92098 15.7107C3.19427 15.0725 3.59237 14.4946 4.09217 14.0106L15.0736 3.09563C15.7796 2.39402 16.7372 1.99991 17.7357 2C18.7341 2.00009 19.6917 2.39438 20.3976 3.09613C21.1035 3.79787 21.5001 4.74959 21.5 5.74191C21.4999 6.73424 21.1032 7.68588 20.3971 8.38749L9.42174 19.2955L9.41371 19.3035L9.40668 19.3104L9.40467 19.3124L9.40166 19.3144C8.97236 19.7127 8.40389 19.9291 7.81677 19.9178C7.22964 19.9065 6.67002 19.6684 6.25655 19.2539C5.84308 18.8395 5.60826 18.2813 5.60189 17.6977C5.59551 17.1141 5.81807 16.551 6.22239 16.1277L14.0627 8.33561C14.2046 8.19924 14.3947 8.12372 14.5921 8.12534C14.7896 8.12695 14.9784 8.20555 15.1181 8.34423C15.2578 8.4829 15.337 8.67054 15.3388 8.86674C15.3406 9.06294 15.2648 9.25199 15.1278 9.39319L7.2875 17.1853C7.14533 17.3248 7.06471 17.5146 7.06339 17.7132C7.06208 17.9117 7.14016 18.1026 7.28047 18.2439C7.42078 18.3852 7.61183 18.4653 7.81157 18.4666C8.01132 18.4679 8.20341 18.3903 8.34558 18.2509L19.333 7.32792C19.5427 7.11947 19.7091 6.872 19.8226 6.59964C19.9361 6.32728 19.9946 6.03536 19.9946 5.74056C19.9946 5.44576 19.9361 5.15385 19.8226 4.88149C19.7091 4.60913 19.5427 4.36265 19.333 4.1542Z" fill="currentColor"/>
</symbol><symbol viewBox="0 0 80 80" fill="none" id="icon-play" xmlns="http://www.w3.org/2000/svg">
<path d="M80 40L20 74.641L20 5.35898L80 40Z" fill="currentColor"/>
</symbol></svg>